<?xml version="1.0" encoding="iso-8859-1"?>
<!-- Uploaded to: SVG Repo, www.svgrepo.com, Generator: SVG Repo Mixer Tools -->
<svg version="1.1" id="Layer_1" xmlns="http://www.w3.org/2000/svg" xmlns:xlink="http://www.w3.org/1999/xlink" 
	 viewBox="0 0 392.598 392.598" xml:space="preserve">
<path style="fill:#FFFFFF;" d="M359.919,21.786H32.808c-6.012,0-10.925,4.848-10.925,10.925v258.004
	c0,6.012,4.848,10.925,10.925,10.925h327.111c6.012,0,10.925-4.848,10.925-10.925V32.711
	C370.844,26.699,365.931,21.786,359.919,21.786z"/>
<polygon style="fill:#56ACE0;" points="153.632,323.426 132.816,370.747 259.911,370.747 239.095,323.426 "/>
<path style="fill:#194F82;" d="M359.919,0H32.808C14.771,0,0.097,14.675,0.097,32.711v258.004c0,18.036,14.675,32.711,32.711,32.711
	h96.97l-20.816,47.321H92.412c-6.012,0-10.925,4.849-10.925,10.925c0,6.012,4.848,10.925,10.925,10.925h207.774
	c6.012,0,10.925-4.848,10.925-10.925c0-6.012-4.848-10.925-10.925-10.925h-16.549l-20.816-47.321h96.97
	c18.036,0,32.711-14.675,32.711-32.711V32.711C392.63,14.675,377.955,0,359.919,0z M370.844,290.78
	c0,6.012-4.848,10.925-10.925,10.925H32.808c-6.012,0-10.925-4.848-10.925-10.925V32.711c0-6.012,4.848-10.925,10.925-10.925
	h327.111c6.012,0,10.925,4.848,10.925,10.925V290.78L370.844,290.78z M132.816,370.747l20.816-47.321h85.463l20.816,47.321H132.816z
	"/>
<path style="fill:#FFC10D;" d="M313.761,122.699c0-6.012,4.848-10.925,10.925-10.925h24.372V86.885h-57.083
	c-6.012,0-10.925-4.848-10.925-10.925c0-6.012,4.848-10.925,10.925-10.925h57.083V43.507H43.668v236.218h305.325V133.624h-24.372
	C318.61,133.624,313.761,128.711,313.761,122.699z"/>
<path style="fill:#FFFFFF;" d="M91.442,125.349c2.004,2.004,3.232,4.719,3.232,7.822v92.574h18.295v-43.119
	c0-6.012,4.848-10.925,10.925-10.925h41.051c6.012,0,10.925,4.848,10.925,10.925v43.119h18.295v-92.638
	c0-3.103,1.228-5.818,3.232-7.822l-53.01-45.188L91.442,125.349z"/>
<rect x="134.884" y="193.487" style="fill:#56ACE0;" width="19.265" height="32.194"/>
<path style="fill:#194F82;" d="M230.497,124.897l-78.933-67.426c-4.073-3.491-10.02-3.491-14.158,0l-78.998,67.426
	c-3.491,2.909-4.719,7.822-3.168,12.024c1.552,4.202,5.624,7.111,10.214,7.111h7.434v92.574c0,6.012,4.848,10.925,10.925,10.925
	h121.341c6.012,0,10.925-4.848,10.925-10.925v-92.574h7.434c4.59,0,8.663-2.844,10.214-7.111
	C235.216,132.655,233.988,127.806,230.497,124.897z M154.084,225.681H134.82v-32.194h19.265V225.681z M194.23,133.107v92.574
	h-18.295v-43.119c0-6.012-4.848-10.925-10.925-10.925h-41.051c-6.012,0-10.925,4.848-10.925,10.925v43.119H94.739v-92.574
	c0-3.103-1.228-5.818-3.232-7.822l53.01-45.188l53.01,45.188C195.523,127.354,194.23,130.133,194.23,133.107z"/>
<path style="fill:#56ACE0;" d="M262.367,198.141l15.063,36.461l4.848-10.99c1.099-2.457,3.103-4.461,5.56-5.56l10.99-4.848
	L262.367,198.141z"/>
<path style="fill:#194F82;" d="M330.763,202.861l-84.299-34.909c-4.073-1.681-8.727-0.776-11.895,2.392
	c-3.103,3.103-4.008,7.822-2.392,11.895l34.909,84.299c1.681,4.008,5.56,6.659,9.956,6.723c0.065,0,0.065,0,0.129,0
	c4.331,0,8.21-2.521,9.956-6.465l13.446-30.384l30.384-13.446c4.008-1.745,6.594-5.689,6.465-10.15
	C337.293,208.356,334.771,204.477,330.763,202.861z M282.278,223.612l-4.848,10.99l-15.063-36.461l36.461,15.063l-10.99,4.848
	C285.381,219.152,283.377,221.156,282.278,223.612z"/>
</svg>