<?xml version="1.0" encoding="iso-8859-1"?>
<!-- Uploaded to: SVG Repo, www.svgrepo.com, Generator: SVG Repo Mixer Tools -->
<svg height="800px" width="800px" version="1.1" id="Layer_1" xmlns="http://www.w3.org/2000/svg" xmlns:xlink="http://www.w3.org/1999/xlink" 
	 viewBox="0 0 504.014 504.014" xml:space="preserve">
<g transform="translate(1 1)">
	<path style="fill:#FFD0A1;" d="M379.053,174.42v51.2c0,9.387-7.68,17.067-17.067,17.067c0,0-8.533,68.267-25.6,93.867
		c-10.24,16.213-25.6,42.667-85.333,42.667s-75.093-26.453-85.333-42.667c-17.067-25.6-25.6-93.867-25.6-93.867
		c-9.387,0-17.067-7.68-17.067-17.067v-51.2H379.053z"/>
	<path style="fill:#80D6FA;" d="M145.24,147.967c-6.827,5.12-15.36,11.093-22.187,17.92v8.533h256v-17.067
		c-17.067-11.093-34.133-17.067-34.133-17.067s-24.747-17.067-93.867-17.067s-93.867,17.067-93.867,17.067
		S152.067,143.7,145.24,147.967c6.827-4.267,11.947-7.68,11.947-7.68s24.747-17.067,93.867-17.067s93.867,17.067,93.867,17.067
		s17.067,5.973,34.133,17.067v-17.067l34.133-42.667c0,0,8.533-18.773-8.533-25.6l-128-61.44c-17.067-8.533-34.133-8.533-51.2,0
		L99.16,73.726c-17.067,6.827-8.533,24.747-8.533,24.747l32.427,42.667v25.6C129.88,159.06,138.413,153.087,145.24,147.967
		L145.24,147.967z"/>
	<path style="fill:#FFE079;" d="M455,428.713L455,428.713l-13.653,35.84l-45.227-17.067l9.387-32.427v-0.853
		C426.84,416.767,443.053,421.887,455,428.713z M251.053,447.487l-34.133,17.067l-59.733-51.2l34.133-17.067L251.053,447.487z
		 M94.893,416.767l11.093,30.72l-51.2,17.067L42.84,434.687l0,0C54.787,426.153,71.853,419.327,94.893,416.767L94.893,416.767z
		 M344.92,413.353l-59.733,51.2l-34.133-17.067l59.733-51.2L344.92,413.353z"/>
	<path style="fill:#80D6FA;" d="M251.053,498.687H3.587l8.533-25.6c4.267-11.947,12.8-26.453,30.72-38.4l0,0l11.947,29.867
		l51.2-17.067l-11.093-30.72v-0.853c11.093-1.707,23.04-2.56,36.693-2.56h25.6l59.733,51.2l34.133-17.067l34.133,17.067l59.733-51.2
		h34.133c9.387,0,17.92,0,26.453,1.707v0.853l-9.387,32.427l45.227,17.067L455,429.567l0,0c22.187,12.8,30.72,30.72,34.987,44.373
		l8.533,25.6L251.053,498.687L251.053,498.687z"/>
	<polygon style="fill:#FFE079;" points="259.587,63.487 276.653,63.487 263,74.58 268.12,91.646 251.053,83.967 233.987,91.646 
		239.96,74.58 225.453,63.487 242.52,63.487 251.053,46.42 	"/>
</g>
<path style="fill:#51565F;" d="M499.52,503.953c-1.707,0-3.413-0.853-4.267-2.56l-8.533-25.6
	c-5.12-14.507-11.947-29.013-29.013-39.253l-11.947,31.573c-0.853,2.56-3.413,3.413-5.12,2.56l-44.373-17.067
	c0,0-0.853,0-0.853-0.853c-0.853,0-0.853-0.853-0.853-1.707s-0.853-0.853-0.853-1.707v-0.853l7.68-28.16
	c-6.827-0.853-13.653-0.853-21.333-0.853c-2.56,0-4.267-1.707-4.267-4.267c0-2.56,1.707-4.267,4.267-4.267
	c83.627,0,104.96,33.28,115.2,62.293l8.533,25.6c0.853,2.56-0.853,4.267-2.56,5.12C500.373,503.953,500.373,503.953,499.52,503.953z
	 M402.24,445.927l37.547,14.507l11.093-28.16c-10.24-5.12-23.893-9.387-40.96-11.093L402.24,445.927z M4.587,503.953
	c-0.853,0-0.853,0-1.707,0c-2.56-0.853-3.413-3.413-2.56-5.12l8.533-25.6c7.68-23.04,34.133-62.293,123.733-62.293
	c2.56,0,4.267,1.707,4.267,4.267s-1.707,4.267-4.267,4.267c-11.093,0-22.187,0.853-30.72,1.707l9.387,26.453c0,0.853,0,2.56,0,3.413
	c0,0.853-1.707,1.707-2.56,2.56l-51.2,17.067c-0.853,0-0.853,0-1.707,0l0,0l0,0c-0.853,0-0.853,0-1.707,0s-0.853-0.853-1.707-0.853
	l0,0l0,0l-0.853-0.853L41.28,444.22c-14.507,11.093-21.333,23.893-24.747,33.28L8,503.1C8,503.1,6.293,503.953,4.587,503.953z
	 M48.96,437.393l9.387,23.04l43.52-14.507l-8.533-23.893C73.707,424.593,60.053,430.567,48.96,437.393z M252.053,503.953
	c-2.56,0-4.267-1.707-4.267-4.267v-44.373l-28.16,13.653c-1.707,0.853-3.413,0.853-4.267-0.853l-59.733-51.2
	c-0.853-0.853-1.707-2.56-1.707-3.413c0-1.707,0.853-2.56,2.56-3.413l34.133-17.067c1.707-0.853,3.413-0.853,4.267,0.853
	l57.173,48.64l57.173-48.64c1.707-0.853,3.413-1.707,4.267-0.853l34.133,17.067c0.853,0.853,2.56,1.707,2.56,3.413
	c0,1.707,0,2.56-1.707,3.413l-59.733,51.2c-1.707,0.853-3.413,1.707-4.267,0.853l-28.16-13.653v44.373
	C256.32,502.247,254.613,503.953,252.053,503.953z M259.733,447.633l25.6,12.8l52.907-45.227l-25.6-12.8L259.733,447.633z
	 M165.867,415.207l52.907,45.227l25.6-12.8l-52.907-45.227L165.867,415.207z M252.053,384.487c-59.733,0-76.8-26.453-87.893-42.667
	l-1.707-1.707c-15.36-23.04-23.893-77.653-25.6-92.16c-10.24-1.707-17.92-10.24-17.92-21.333v-17.067
	c0-2.56,1.707-4.267,4.267-4.267c2.56,0,4.267,1.707,4.267,4.267v17.067c0,6.827,5.973,12.8,12.8,12.8
	c2.56,0,4.267,1.707,4.267,3.413c0,0.853,8.533,67.413,24.747,92.16l1.707,1.707c10.24,15.36,25.6,38.4,80.213,38.4
	s69.973-23.04,80.213-38.4l1.707-1.707c16.213-24.747,24.747-91.307,24.747-92.16c0-2.56,1.707-3.413,4.267-3.413
	c6.827,0,12.8-5.973,12.8-12.8v-17.067c0-2.56,1.707-4.267,4.267-4.267s4.267,1.707,4.267,4.267v17.067
	c0,10.24-7.68,19.627-17.92,21.333c-1.707,14.507-10.24,69.12-25.6,92.16l-1.707,1.707
	C328.853,358.033,311.787,384.487,252.053,384.487z M260.587,333.287H243.52c-2.56,0-4.267-1.707-4.267-4.267
	c0-2.56,1.707-4.267,4.267-4.267h17.067c2.56,0,4.267,1.707,4.267,4.267C264.853,331.58,263.147,333.287,260.587,333.287z
	 M286.187,307.687c-0.853,0-17.067,0-34.133-7.68c-17.067,7.68-33.28,7.68-34.133,7.68c-2.56,0-4.267-1.707-4.267-4.267
	c0-2.56,1.707-4.267,4.267-4.267c0,0,16.213,0,32.427-7.68c0.853-0.853,2.56-0.853,3.413,0c16.213,7.68,32.427,7.68,32.427,7.68
	c2.56,0,4.267,1.707,4.267,4.267C290.453,305.98,288.747,307.687,286.187,307.687z M294.72,239.42c-2.56,0-4.267-1.707-4.267-4.267
	v-4.267h-12.8c-2.56,0-4.267-1.707-4.267-4.267c0-2.56,1.707-4.267,4.267-4.267h34.133c2.56,0,4.267,1.707,4.267,4.267
	c0,2.56-1.707,4.267-4.267,4.267h-12.8v4.267C298.987,237.713,297.28,239.42,294.72,239.42z M209.387,239.42
	c-2.56,0-4.267-1.707-4.267-4.267v-4.267h-12.8c-2.56,0-4.267-1.707-4.267-4.267c0-2.56,1.707-4.267,4.267-4.267h34.133
	c2.56,0,4.267,1.707,4.267,4.267c0,2.56-1.707,4.267-4.267,4.267h-12.8v4.267C213.653,237.713,211.947,239.42,209.387,239.42z
	 M380.053,179.687h-256c-2.56,0-4.267-1.707-4.267-4.267v-32.427l-30.72-41.813c-0.853-0.853-5.12-10.24-1.707-19.627
	c1.707-5.12,5.973-9.387,11.947-11.947L224.746,6.46l0,0c17.92-8.533,36.693-8.533,54.613,0l128,61.44
	c5.12,2.56,9.387,5.973,11.093,11.093c3.413,9.387-0.853,19.627-0.853,19.627s0,0.853-0.853,0.853l-33.28,41.813v32.427
	C384.32,177.98,382.613,179.687,380.053,179.687z M128.32,171.153h247.467v-29.867c0-0.853,0-1.707,0.853-2.56l34.133-41.813
	c0.853-1.707,2.56-7.68,0.853-12.8c-0.853-2.56-3.413-5.12-6.827-6.827l-128-61.44c-16.213-7.68-31.573-8.533-47.787,0l0,0
	L102.72,78.993c-4.267,1.707-6.827,4.267-7.68,6.827c-2.56,5.973,0.853,11.947,0.853,11.947l31.573,41.813
	c0.853,0.853,0.853,1.707,0.853,2.56L128.32,171.153L128.32,171.153z M158.187,145.553c-1.707,0-2.56-0.853-3.413-1.707
	c-1.707-1.707-0.853-4.267,0.853-5.973c0.853-0.853,27.307-17.92,96.427-17.92s95.573,17.067,96.427,17.92
	c1.707,1.707,2.56,4.267,0.853,5.973s-4.267,2.56-5.973,0.853c-0.853,0-25.6-16.213-91.307-16.213
	c-66.56,0-91.307,16.213-91.307,16.213C159.893,145.553,159.04,145.553,158.187,145.553z M234.987,96.913
	c-0.853,0-1.707,0-2.56-0.853c-0.853-0.853-1.707-2.56-0.853-4.267l5.12-14.507L224.747,67.9c-1.707-0.853-1.707-3.413-1.707-5.12
	s2.56-2.56,4.267-2.56h14.507l7.68-14.507c1.707-2.56,5.973-2.56,7.68,0l7.68,14.507h14.507c1.707,0,3.413,0.853,4.267,2.56
	c0.853,1.707,0,3.413-1.707,5.12l-11.947,9.387l5.12,13.653c0.853,1.707,0,3.413-0.853,4.267s-3.413,1.707-4.267,0.853l-15.36-6.827
	l-15.36,6.827C236.693,96.913,235.84,96.913,234.987,96.913z M239.253,68.753l4.267,3.413c1.707,0.853,2.56,3.413,1.707,5.12
	l-2.56,7.68l7.68-3.413c0.853-0.853,2.56-0.853,3.413,0l7.68,3.413l-2.56-7.68c-0.853-1.707,0-3.413,1.707-5.12l4.267-3.413h-5.12
	c-1.707,0-3.413-0.853-3.413-2.56l-5.12-9.387l-5.12,9.387c-0.853,1.707-2.56,2.56-3.413,2.56H239.253z"/>
</svg>